<svg width="50" height="52" viewBox="0 0 50 52" fill="none" xmlns="http://www.w3.org/2000/svg">
<g filter="url(#filter0_i_179_2110)">
<path d="M14.0515 14.5385C12.0157 10.5455 11.8668 7.16686 12.5122 3.48105C5.01483 7.93474 0 16.279 0 25.8007C0 33.3771 3.17771 40.1856 8.2422 44.9465C9.18558 40.9535 11.3206 37.882 13.4556 33.889C16.4844 28.2579 17.2292 20.6815 14.0515 14.5385ZM33.1177 19.9136C34.1604 19.9136 34.9549 20.7839 34.9549 21.8077C34.9549 22.8828 34.1108 23.7018 33.1177 23.7018C32.1247 23.7018 31.2806 22.8316 31.2806 21.8077C31.231 20.7327 32.0751 19.9136 33.1177 19.9136ZM23.4853 19.9136C24.528 19.9136 25.3224 20.7839 25.3224 21.8077C25.3224 22.8828 24.4783 23.7018 23.4853 23.7018C22.4923 23.7018 21.6482 22.8316 21.6482 21.8077C21.6482 20.7327 22.4923 19.9136 23.4853 19.9136ZM25.0742 0C23.4356 0 21.8468 0.153575 20.2579 0.460727L19.96 1.99648C19.1159 6.2966 21.0027 9.41931 25.1735 10.8527C30.4862 12.6956 36.4941 15.1528 40.0193 19.8113C44.1901 25.2888 42.8991 33.1212 37.3381 37.1141C36.5934 37.626 35.7493 38.0356 34.8059 38.3427V30.5616C34.8059 30.0496 34.4087 29.6913 33.9618 29.6913H21.0027C20.5062 29.6913 20.1586 30.1008 20.1586 30.5616C20.1586 31.0223 20.5558 31.4318 21.0027 31.4318H23.6342C23.5846 32.8652 23.7336 34.6057 24.4287 35.9367C25.0245 37.0629 26.1168 37.4213 27.2092 36.8582C27.805 36.551 28.1526 36.0391 28.4505 35.6296C28.8477 35.0664 29.0463 34.8617 29.3939 34.8617C29.5925 34.8617 29.5925 34.9129 29.6421 34.9129C29.94 35.2712 29.94 36.6022 29.8904 37.5237C29.8904 38.138 29.8407 38.7523 29.8904 39.3154C23.5349 40.1344 16.534 40.2368 15.8389 48.1204L15.6403 49.7073C18.5201 50.8847 21.6978 51.6014 24.9748 51.6014C38.778 51.6014 49.9993 40.0321 49.9993 25.8007C50.0986 11.5694 38.8773 0 25.0742 0ZM33.1177 38.8034V39.4178C33.1177 39.7761 32.8198 40.0321 32.5716 40.1856C32.373 40.288 32.1247 40.288 31.9261 40.0832C31.7771 39.9297 31.7275 39.5201 31.6778 39.0594C31.6282 38.5987 31.6778 38.0356 31.6778 37.5748C31.7275 36.0903 31.7275 34.5545 30.9331 33.6843C30.6848 33.4283 30.1883 33.07 29.4435 33.07C28.2022 33.07 27.5567 33.889 27.1099 34.5033C26.8616 34.8105 26.663 35.1176 26.4147 35.22C26.2161 35.3224 26.1665 35.3736 25.9679 35.0153C25.521 34.1962 25.3721 33.0188 25.3721 31.3806H33.1177V38.8034Z" fill="#10B981"/>
</g>
<defs>
<filter id="filter0_i_179_2110" x="0" y="0" width="50" height="55.6014" filterUnits="userSpaceOnUse" color-interpolation-filters="sRGB">
<feFlood flood-opacity="0" result="BackgroundImageFix"/>
<feBlend mode="normal" in="SourceGraphic" in2="BackgroundImageFix" result="shape"/>
<feColorMatrix in="SourceAlpha" type="matrix" values="0 0 0 0 0 0 0 0 0 0 0 0 0 0 0 0 0 0 127 0" result="hardAlpha"/>
<feOffset dy="4"/>
<feGaussianBlur stdDeviation="2"/>
<feComposite in2="hardAlpha" operator="arithmetic" k2="-1" k3="1"/>
<feColorMatrix type="matrix" values="0 0 0 0 0 0 0 0 0 0 0 0 0 0 0 0 0 0 0.25 0"/>
<feBlend mode="normal" in2="shape" result="effect1_innerShadow_179_2110"/>
</filter>
</defs>
</svg>
