<svg xmlns="http://www.w3.org/2000/svg" viewBox="0 0 111.9 113.5">
<path style="fill: #0ba581" d="M33.8,34.7c-4.1-7.8-4.4-14.4-3.1-21.6c-15.1,8.7-25.2,25-25.2,43.6c0,14.8,6.4,28.1,16.6,37.4
	c1.9-7.8,6.2-13.8,10.5-21.6C38.7,61.5,40.2,46.7,33.8,34.7z M72.2,45.2c2.1,0,3.7,1.7,3.7,3.7c0,2.1-1.7,3.7-3.7,3.7
	s-3.7-1.7-3.7-3.7C68.4,46.8,70.1,45.2,72.2,45.2z M52.8,45.2c2.1,0,3.7,1.7,3.7,3.7c0,2.1-1.7,3.7-3.7,3.7s-3.7-1.7-3.7-3.7
	C49.1,46.8,50.8,45.2,52.8,45.2z M56,6.3c-3.3,0-6.5,0.3-9.7,0.9l-0.6,3c-1.7,8.4,2.1,14.5,10.5,17.3C66.9,31.1,79,35.9,86.1,45
	c8.4,10.7,5.8,26-5.4,33.8c-1.5,1-3.2,1.8-5.1,2.4V66c0-1-0.8-1.7-1.7-1.7H47.8c-1,0-1.7,0.8-1.7,1.7s0.8,1.7,1.7,1.7h5.3
	c-0.1,2.8,0.2,6.2,1.6,8.8c1.2,2.2,3.4,2.9,5.6,1.8c1.2-0.6,1.9-1.6,2.5-2.4c0.8-1.1,1.2-1.5,1.9-1.5c0.4,0,0.4,0.1,0.5,0.1
	c0.6,0.7,0.6,3.3,0.5,5.1c0,1.2-0.1,2.4,0,3.5c-12.8,1.6-26.9,1.8-28.3,17.2l-0.4,3.1c5.8,2.3,12.2,3.7,18.8,3.7
	c27.8,0,50.4-22.6,50.4-50.4C106.4,28.9,83.8,6.3,56,6.3z M72.2,82.1v1.2c0,0.7-0.6,1.2-1.1,1.5c-0.4,0.2-0.9,0.2-1.3-0.2
	c-0.3-0.3-0.4-1.1-0.5-2c-0.1-0.9,0-2,0-2.9c0.1-2.9,0.1-5.9-1.5-7.6c-0.5-0.5-1.5-1.2-3-1.2c-2.5,0-3.8,1.6-4.7,2.8
	c-0.5,0.6-0.9,1.2-1.4,1.4c-0.4,0.2-0.5,0.3-0.9-0.4c-0.9-1.6-1.2-3.9-1.2-7.1h15.6V82.1z"/>
</svg>
