<?xml version="1.0" encoding="utf-8"?>
<!-- Generator: Adobe Illustrator 27.3.1, SVG Export Plug-In . SVG Version: 6.00 Build 0)  -->
<svg version="1.1" id="icon-0" xmlns:svgjs="http://svgjs.dev/svgjs"
	 xmlns="http://www.w3.org/2000/svg" xmlns:xlink="http://www.w3.org/1999/xlink" x="0px" y="0px" viewBox="0 0 1195 1192"
	 style="enable-background:new 0 0 1195 1192;" xml:space="preserve">
<style type="text/css">
	.st0{fill:#00784A;}
</style>
<path transform="matrix(1,0,0,1,0,13.858532882255531)" class="st0" d="M350.1,334.6c-46.3-87.5-49.7-162.1-34.5-242.5
	C146.5,190,32.6,372.7,32.6,582.1c0,166.4,71.8,316,186.1,419.5c21-87,69.6-155.1,118-242.3C405.2,635.8,421.3,469.4,350.1,334.6z
	 M624.6,452c-10.8,0-19.5,8.7-19.5,19.5v117.1c0,10.8,8.7,19.5,19.5,19.5h100.8c10.8,0,19.5-8.7,19.5-19.5
	c0-10.8-8.7-19.5-19.5-19.5h-81.3v-97.6C644.1,460.8,635.3,452,624.6,452z M517.2,452c16.2,0,29.3,13.1,29.3,29.3
	s-13.1,29.3-29.3,29.3c-16.2,0-29.3-13.1-29.3-29.3S501.1,452,517.2,452z M790.4,452c16.2,0,29.3,13.1,29.3,29.3
	s-13.1,29.3-29.3,29.3c-16.2,0-29.3-13.1-29.3-29.3S774.3,452,790.4,452z M598.5,16.2c-37.1,0-73.3,3.7-108.4,10.5l-7.1,33.4
	c-19.5,94.3,23.9,162.7,118.4,194.4c120.1,40.3,255.2,93.2,336,195.9c94.8,120.5,65.6,292.4-60.5,379.2
	c-16.9,11.7-36.3,20.4-57.3,27.2V686.2c0-10.8-8.7-19.5-19.5-19.5H507.5c-10.8,0-19.5,8.7-19.5,19.5c0,10.8,8.7,19.5,19.5,19.5h59.3
	c-0.8,31.4,1.7,69.5,17.8,98.7c13.9,25.2,38.6,33.1,63,20c13.1-7,21.1-17.5,28.3-26.7c9.4-12.2,13.4-16.4,21.9-16.4
	c4,0,5,1.1,5.5,1.5c7.2,7.3,6.5,37.2,6,57c-0.3,13.6-0.6,26.8,0.4,39.1c-143.7,18-302.3,19.7-318.2,193.5L387,1107
	c65.4,26.4,136.7,41,211.6,41c312.6,0,565.9-253.4,565.9-565.9C1164.5,269.6,911.1,16.2,598.5,16.2z M780.7,867.4v14
	c0,7.7-6.3,13.9-12.2,16.4c-4,1.7-9.7,2.8-14.8-2c-3.3-3.1-4.8-11.9-5.4-22.4c-0.6-10.6-0.3-22.9-0.1-32.7
	c0.8-32.5,1.5-66.1-17.1-85.2c-5.9-6-16.5-13.3-33.4-13.3c-28.3,0-42.4,18.3-52.7,31.6c-5.4,7-10.1,13.1-15.9,16.2
	c-4.6,2.4-6.1,3.2-10.3-4.5c-9.6-17.4-13.9-43.7-13-79.9h174.8V867.4z"/>
</svg>
