<?xml version="1.0" encoding="utf-8"?>
<!-- Generator: Adobe Illustrator 27.3.1, SVG Export Plug-In . SVG Version: 6.00 Build 0)  -->
<svg version="1.1" id="icon-0" xmlns:svgjs="http://svgjs.dev/svgjs"
	 xmlns="http://www.w3.org/2000/svg" xmlns:xlink="http://www.w3.org/1999/xlink" x="0px" y="0px" viewBox="0 0 2705.5 1032"
	 style="enable-background:new 0 0 2705.5 1032;" xml:space="preserve">
<style type="text/css">
	.st0{fill:#00784A;}
	.st1{font-family:'Sriracha-Regular';}
	.st2{font-size:518.1578px;}
	.st3{font-size:474.5728px;}
	.st4{fill:none;stroke:#00784A;stroke-width:24;stroke-linecap:round;stroke-miterlimit:10;}
</style>
<path class="st0" d="M291.7,336.9c-34-64.2-36.5-119-25.3-178c-124.1,71.9-207.7,206-207.7,359.7c0,122.2,52.7,232,136.6,307.9
	c15.4-63.9,51.1-113.9,86.6-177.9C332.1,558.1,343.9,435.9,291.7,336.9z M493.1,423.1c-7.9,0-14.3,6.4-14.3,14.3v86
	c0,7.9,6.4,14.3,14.3,14.3h74c7.9,0,14.3-6.4,14.3-14.3c0-7.9-6.4-14.3-14.3-14.3h-59.7v-71.6C507.5,429.6,501,423.1,493.1,423.1z
	 M414.3,423.1c11.9,0,21.5,9.6,21.5,21.5s-9.6,21.5-21.5,21.5s-21.5-9.6-21.5-21.5S402.5,423.1,414.3,423.1z M614.8,423.1
	c11.9,0,21.5,9.6,21.5,21.5s-9.6,21.5-21.5,21.5s-21.5-9.6-21.5-21.5S603,423.1,614.8,423.1z M474,103.2c-27.2,0-53.8,2.7-79.6,7.7
	l-5.2,24.5c-14.3,69.2,17.5,119.4,86.9,142.7c88.1,29.6,187.3,68.4,246.6,143.8c69.6,88.5,48.1,214.6-44.4,278.4
	c-12.4,8.6-26.6,15-42.1,20V595c0-7.9-6.4-14.3-14.3-14.3H407.2c-7.9,0-14.3,6.4-14.3,14.3c0,7.9,6.4,14.3,14.3,14.3h43.5
	c-0.6,23.1,1.2,51,13.1,72.5c10.2,18.5,28.3,24.3,46.2,14.7c9.6-5.1,15.5-12.8,20.8-19.6c6.9-9,9.8-12,16.1-12c2.9,0,3.7,0.8,4,1.1
	c5.3,5.4,4.8,27.3,4.4,41.8c-0.2,10-0.4,19.7,0.3,28.7c-105.5,13.2-221.9,14.5-233.5,142l-3.3,25.4c48,19.4,100.3,30.1,155.3,30.1
	c229.4,0,415.3-186,415.3-415.4S703.4,103.2,474,103.2z M607.7,728.1v10.3c0,5.7-4.6,10.2-9,12c-2.9,1.2-7.1,2.1-10.9-1.5
	c-2.4-2.3-3.5-8.7-4-16.4c-0.4-7.8-0.2-16.8-0.1-24c0.6-23.9,1.1-48.5-12.6-62.5c-4.3-4.4-12.1-9.8-24.5-9.8
	c-20.8,0-31.1,13.4-38.7,23.2c-4,5.1-7.4,9.6-11.7,11.9c-3.4,1.8-4.5,2.3-7.6-3.3c-7-12.8-10.2-32.1-9.5-58.7h128.3L607.7,728.1
	L607.7,728.1z"/>
<text transform="matrix(0.8685 0 0 1 1150.5157 444.6344)" class="st0 st1 st2">Barako</text>
<text transform="matrix(0.9482 0 0 1 1146.4714 920.2406)" class="st0 st1 st3">Skoniai</text>
<line class="st4" x1="1013.8" y1="120.5" x2="1013.8" y2="934"/>
</svg>
