<svg xmlns="http://www.w3.org/2000/svg" xmlns:xlink="http://www.w3.org/1999/xlink" viewBox="0 0 90 90">
<path d="M44.9,6.8c-9,0-16.5,6.7-18.1,15.4c-1.8-0.6-3.6-0.9-5.5-0.9c-10.2,0-18.4,8.5-18.4,18.8c0,9.6,7.1,17.6,16.3,18.7v23.5
	c0,1.3,1.1,2.4,2.4,2.4c0,0,0,0,0,0h46.5c1.3,0,2.4-1,2.4-2.4c0,0,0,0,0,0V50.3c0-1.3-1.1-2.4-2.4-2.4s-2.4,1.1-2.4,2.4l0,0V80H24.1
	v-5.8h36.8c1.3,0,2.4-1,2.5-2.3c0-1.3-1-2.4-2.3-2.5c-0.1,0-0.1,0-0.2,0H24.1v-19c0-1.3-1-2.4-2.4-2.5c-0.1,0-0.2,0-0.3,0
	c-1.2,0.1-2.2,1.2-2.2,2.4V54c-6.5-1-11.5-6.8-11.5-13.8c0-7.8,6.1-14,13.6-14c2.4,0,4.5,0.6,6.4,1.6c1.2,0.6,2.6,0.2,3.3-1
	c0.2-0.4,0.3-0.8,0.3-1.2c0-7.8,6.1-14,13.6-14c6.8,0,10.9,3.4,12.9,7.9c2.1,4.5,1.8,10.2-0.7,14.1c-0.8,1.1-0.6,2.6,0.5,3.4
	s2.6,0.6,3.4-0.5c0.1-0.1,0.1-0.2,0.2-0.3c1.7-2.7,2.6-5.8,2.8-9c1.2-0.6,2-1.1,4.5-1.1c7.5,0,13.6,6.2,13.6,14
	c0,4.7-2.2,8.8-5.6,11.4c-1.1,0.8-1.3,2.3-0.5,3.4s2.3,1.3,3.4,0.5c4.6-3.4,7.5-9,7.5-15.2c0-10.4-8.2-18.8-18.4-18.8
	c-2.2,0-3.7,0.4-4.8,0.8c-0.3-1.6-0.8-3.1-1.5-4.6C59.5,11.5,53.5,6.8,44.9,6.8z M21.4,28.8c-6.1,0-11,5.1-11,11.3
	c-0.1,1.3,0.8,2.5,2.1,2.7s2.5-0.8,2.6-2.2c0-0.2,0-0.4,0-0.5c0-3.6,2.8-6.4,6.3-6.4c1.3,0,2.4-1.1,2.4-2.5
	C23.8,29.9,22.7,28.8,21.4,28.8z"/>
</svg>
