<svg xmlns="http://www.w3.org/2000/svg" xmlns:xlink="http://www.w3.org/1999/xlink" viewBox="0 0 90 90">
<path d="M82.8,18L68.4,32.4c-0.1,0.1-0.1,0.1-0.2,0.1c-0.2,0.3-0.5,0.5-0.8,0.7c-1.2,0.7-2.8,0.3-3.5-0.9l-5.1-8.8
	c-0.7-1.2-0.3-2.8,0.9-3.5c1.2-0.7,2.8-0.3,3.5,0.9l3.4,6l12.5-12.5c1-1,2.6-1,3.6,0C83.8,15.4,83.8,17,82.8,18z M51.1,53.8L43,47.2
	c-1.1-0.4-2.2-1.3-2.2-2.2l0-0.2c0-0.3,0-0.7,0.1-1L42,28.5c0-1.4,1.1-2.5,2.5-2.5c1.4,0,2.5,1.1,2.5,2.5l1.1,13.8l6.5,7.9
	c1,1,1,2.6,0,3.6C53.7,54.8,52.1,54.8,51.1,53.8z M53.3,13.1L53.3,13.1c-2.8-0.7-5.7-1.2-8.7-1.2c-18.3,0-33.1,14.8-33.1,33.1
	s14.8,33.1,33.1,33.1S77.6,63.3,77.6,45c0-1.7-0.2-3.3-0.4-4.9l0.1,0c-0.1-0.2-0.1-0.4-0.1-0.6c0-1.4,1.1-2.6,2.5-2.6
	c1.4,0,2.6,1.1,2.6,2.5c0,0,0,0.1,0,0.1c0.3,1.8,0.5,3.7,0.5,5.6c0,21.1-17.1,38.1-38.1,38.1S6.4,66.1,6.4,45
	c0-21.1,17.1-38.1,38.1-38.1c3.3,0,6.4,0.5,9.4,1.2c0.3,0,0.5,0.1,0.8,0.2c1.3,0.5,1.9,2,1.4,3.3C55.7,12.7,54.5,13.3,53.3,13.1z"/>
</svg>
